<svg width="48" height="48" version="1.1" xmlns="http://www.w3.org/2000/svg">
 <defs>
  <linearGradient id="linearGradient4580-6" x1="42" x2="42" y1="30" y2="54" gradientTransform="matrix(.75 0 0 .75 -.25 -.5)" gradientUnits="userSpaceOnUse">
   <stop style="stop-color:#f9548f" offset="0"/>
   <stop style="stop-color:#fecd38" offset=".5"/>
   <stop style="stop-color:#79de7d" offset="1"/>
  </linearGradient>
  <linearGradient id="linearGradient2848" x1="26" x2="26" y1="45" y2="54" gradientTransform="matrix(.75 0 0 .75 -13.875 -.5)" gradientUnits="userSpaceOnUse">
   <stop style="stop-color:#50beee" offset="0"/>
   <stop style="stop-color:#248afd" offset="1"/>
  </linearGradient>
 </defs>
 <path d="m10 5c-1.108 0-2 0.892-2 2v36c0 1.108 0.892 2 2 2h28c1.108 0 2-0.892 2-2v-26l-12-12z" style="opacity:.2"/>
 <path d="m10 4c-1.108 0-2 0.892-2 2v36c0 1.108 0.892 2 2 2h28c1.108 0 2-0.892 2-2v-26l-10-2-2-10z" style="fill:#7767c0;stop-color:#000000"/>
 <path d="m40 17-12-12v10c0 1.108 0.892 2 2 2z" style="opacity:.2"/>
 <path d="m40 16-12-12v10c0 1.108 0.892 2 2 2z" style="fill:#9182d7;stop-color:#000000"/>
 <path d="m10 4c-1.108 0-2 0.892-2 2v1c0-1.108 0.892-2 2-2h18v-1h-18z" style="fill:#ffffff;opacity:.2"/>
 <g>
  <path d="m29 23-12 18h4l12-18zm5 0-12 18h4l12-18z" style="fill-opacity:.2;stop-color:#000000"/>
  <path d="m11 32 5.5 8.25 2-3-3.5-5.25zm5 0 3 4.5 2-3-1-1.5z" style="fill-opacity:.2;stop-color:#000000"/>
  <path d="m29 22-12 18h4l12-18zm5 0-12 18h4l12-18z" style="fill:url(#linearGradient4580-6);stop-color:#000000"/>
  <path d="m11 31 5.5 8.25 2-3-3.5-5.25zm5 0 3 4.5 2-3-1-1.5z" style="fill:url(#linearGradient2848);stop-color:#000000"/>
  <path d="M 29,22 17,40 h 0.666016 L 29,23 h 3.333984 L 33,22 Z m 5,0 -12,18 h 0.666016 L 34,23 h 3.333984 L 38,22 Z" style="fill-opacity:.2;fill:#ffffff;stop-color:#000000"/>
  <path d="m 11,31 0.666016,1 H 15 L 18.166016,36.75 18.5,36.25 15,31 Z m 5,0 0.666016,1 H 20 L 20.666016,33 21,32.5 20,31 Z" style="fill-opacity:.2;fill:#ffffff;stop-color:#000000"/>
 </g>
</svg>
